<?xml version="1.0" encoding="UTF-8" standalone="no"?>
<!-- Generated by IcoMoon.io -->

<svg
   version="1.1"
   width="19"
   height="12"
   viewBox="0 0 19 12"
   id="svg1"
   sodipodi:docname="envelope.svg"
   inkscape:version="1.3 (0e150ed6c4, 2023-07-21)"
   xmlns:inkscape="http://www.inkscape.org/namespaces/inkscape"
   xmlns:sodipodi="http://sodipodi.sourceforge.net/DTD/sodipodi-0.dtd"
   xmlns="http://www.w3.org/2000/svg"
   xmlns:svg="http://www.w3.org/2000/svg">
  <defs
     id="defs1" />
  <sodipodi:namedview
     id="namedview1"
     pagecolor="#ffffff"
     bordercolor="#000000"
     borderopacity="0.25"
     inkscape:showpageshadow="2"
     inkscape:pageopacity="0.0"
     inkscape:pagecheckerboard="0"
     inkscape:deskcolor="#d1d1d1"
     inkscape:zoom="19.538565"
     inkscape:cx="7.4724015"
     inkscape:cy="9.3405019"
     inkscape:window-width="1920"
     inkscape:window-height="1001"
     inkscape:window-x="2391"
     inkscape:window-y="-9"
     inkscape:window-maximized="1"
     inkscape:current-layer="svg1" />
  <path
     fill="#000000"
     d="M 17.5,0 H 1.5 C 0.673,0 0,0.673 0,1.5 v 9 C 0,11.327 0.673,12 1.5,12 h 16 c 0.827,0 1.5,-0.673 1.5,-1.5 v -9 C 19,0.673 18.327,0 17.5,0 Z m 0,1 c 0.03,0 0.058,0.003 0.087,0.008 l -7.532,5.021 c -0.29,0.193 -0.819,0.193 -1.109,0 L 1.414,1.008 C 1.442,1.003 1.471,1 1.501,1 h 16 z m 0,10 H 1.5 C 1.224,11 1,10.776 1,10.5 V 1.934 l 7.391,4.927 c 0.311,0.207 0.71,0.311 1.109,0.311 0.399,0 0.798,-0.104 1.109,-0.311 L 18,1.934 V 10.5 c 0,0.276 -0.224,0.5 -0.5,0.5 z"
     id="path1"
     style="fill:#455d87;fill-opacity:1.0" />
</svg>
